<?xml version="1.0" encoding="UTF-8" standalone="no"?>
<!-- Created with Inkscape (http://www.inkscape.org/) -->

<svg
   xmlns:dc="http://purl.org/dc/elements/1.1/"
   xmlns:cc="http://creativecommons.org/ns#"
   xmlns:rdf="http://www.w3.org/1999/02/22-rdf-syntax-ns#"
   xmlns:svg="http://www.w3.org/2000/svg"
   xmlns="http://www.w3.org/2000/svg"
   xmlns:sodipodi="http://sodipodi.sourceforge.net/DTD/sodipodi-0.dtd"
   xmlns:inkscape="http://www.inkscape.org/namespaces/inkscape"
   width="16px"
   height="16px"
   id="svg3009"
   version="1.1"
   inkscape:version="0.91pre3 r13670"
   sodipodi:docname="two_dots_filled_red.svg">
  <defs
     id="defs3011" />
  <sodipodi:namedview
     id="base"
     pagecolor="#ffffff"
     bordercolor="#666666"
     borderopacity="1.0"
     inkscape:pageopacity="0.0"
     inkscape:pageshadow="2"
     inkscape:zoom="44.395604"
     inkscape:cx="9.5878711"
     inkscape:cy="5.5481363"
     inkscape:current-layer="layer1"
     showgrid="true"
     inkscape:grid-bbox="true"
     inkscape:document-units="px"
     showguides="false"
     inkscape:snap-global="false"
     inkscape:window-width="1920"
     inkscape:window-height="1125"
     inkscape:window-x="1671"
     inkscape:window-y="-9"
     inkscape:window-maximized="1">
    <inkscape:grid
       type="xygrid"
       id="grid3025" />
  </sodipodi:namedview>
  <metadata
     id="metadata3014">
    <rdf:RDF>
      <cc:Work
         rdf:about="">
        <dc:format>image/svg+xml</dc:format>
        <dc:type
           rdf:resource="http://purl.org/dc/dcmitype/StillImage" />
        <dc:title></dc:title>
      </cc:Work>
    </rdf:RDF>
  </metadata>
  <g
     id="layer1"
     inkscape:label="Layer 1"
     inkscape:groupmode="layer">
    <path
       id="path3027-1"
       style="fill:none;stroke:#000000;stroke-width:0.2;stroke-miterlimit:4;stroke-opacity:1"
       d="m 16.003837,8.076597 c 0,2.208114 -1.79003,3.998143 -3.998144,3.998143 -2.2081136,0 -3.9981435,-1.790029 -3.9981435,-3.998143 0,-2.208114 1.7900299,-3.9981439 3.9981435,-3.9981439 2.208114,0 3.998144,1.7900299 3.998144,3.9981439 z m -7.985025,0.01126 c 0,2.208114 -1.7900297,3.998143 -3.9981436,3.998143 -2.2081138,0 -3.9981436,-1.790029 -3.9981436,-3.998143 0,-2.2081143 1.7900298,-3.9981442 3.9981436,-3.9981442 2.2081138,0 3.9981436,1.7900299 3.9981436,3.9981442 z"
       inkscape:connector-curvature="0" />
    <path
       style="fill:#ff0000;fill-opacity:1;stroke:#000000;stroke-width:0.09009901;stroke-miterlimit:4;stroke-dasharray:none;stroke-opacity:1"
       d="M 3.6188116,11.953948 C 2.4640205,11.822367 1.4296975,11.200133 0.79940043,10.257828 0.30779261,9.5228665 0.07124351,8.625862 0.14763496,7.7863045 0.19758663,7.2373256 0.30865013,6.8398793 0.54645223,6.3591161 1.0171201,5.40757 1.8913065,4.6677281 2.9013746,4.3660971 3.3132073,4.2431139 3.4955913,4.2192646 4.0242572,4.2192646 c 0.5566247,0 0.7991629,0.037746 1.2613861,0.1963075 C 5.8441759,4.6071718 6.327125,4.9115626 6.7610396,5.3454772 7.1952074,5.7796449 7.4987275,6.2613515 7.6917944,6.8226467 7.8568042,7.302373 7.8873723,7.5019926 7.8864056,8.0935221 7.8856667,8.5455017 7.8790388,8.6417629 7.8344504,8.8481013 7.6106767,9.8836401 7.0335321,10.741931 6.1753711,11.315374 5.4169491,11.822169 4.4913388,12.053367 3.6188116,11.953948 Z"
       id="path4135"
       inkscape:connector-curvature="0" />
    <path
       style="fill:#ff0000;fill-opacity:1;stroke:#000000;stroke-width:0.09009901;stroke-miterlimit:4;stroke-dasharray:none;stroke-opacity:1"
       d="M 11.427207,11.922448 C 9.8819832,11.672226 8.6519462,10.56899 8.2506446,9.0733488 8.0647897,8.3806721 8.0855359,7.5584024 8.3059408,6.8817023 8.3786085,6.658594 8.5780273,6.2264285 8.6925973,6.0437696 9.0627068,5.4537043 9.652599,4.9093347 10.244252,4.6118572 c 1.191901,-0.5992761 2.61316,-0.5543144 3.733918,0.1181229 1.300192,0.7800949 2.042947,2.2250763 1.896826,3.6901509 -0.173948,1.744091 -1.417634,3.125962 -3.123083,3.470085 -0.319386,0.06444 -1.020439,0.0815 -1.324706,0.03223 z"
       id="path4137"
       inkscape:connector-curvature="0" />
  </g>
</svg>
